<?xml version="1.0" encoding="UTF-8"?>
<svg version="1.1" xmlns="http://www.w3.org/2000/svg" width="1254" height="1254">
<path d="M0 0 C413.82 0 827.64 0 1254 0 C1254 413.82 1254 827.64 1254 1254 C840.18 1254 426.36 1254 0 1254 C0 840.18 0 426.36 0 0 Z " fill="#020101" transform="translate(0,0)"/>
<path d="M0 0 C9.36256479 -0.04648213 18.72508942 -0.08194953 28.08774471 -0.10362434 C32.43589817 -0.11403078 36.78397228 -0.12813218 41.13208008 -0.15087891 C45.33366735 -0.17271984 49.53517862 -0.18459221 53.73681831 -0.18975449 C55.33426674 -0.19343014 56.93171133 -0.20060744 58.52912712 -0.21146011 C78.29282871 -0.34030824 92.53668838 4.82678345 107 19 C139.92531082 57.28524514 123 113.34194145 123 160 C37.86 160 -47.28 160 -135 160 C-135 126.01 -135 92.02 -135 57 C-129.39 57 -123.78 57 -118 57 C-118 85.38 -118 113.76 -118 143 C-44.08 143 29.84 143 106 143 C112.26785597 83.2038624 112.26785597 83.2038624 91.8125 29.1875 C87.28700626 24.91855352 81.63942127 22.48165268 76 20 C74.94921265 19.46572388 74.94921265 19.46572388 73.87719727 18.9206543 C69.88635142 17.64365135 66.2544677 17.87352905 62.09765625 18.0078125 C25.16659045 18.58656372 25.16659045 18.58656372 8.96337891 6.43896484 C6.1137464 4.35046273 3.09694345 2.69408959 0 1 C0 0.67 0 0.34 0 0 Z " fill="#8E8677" transform="translate(633,540)"/>
<path d="M0 0 C85.14 0 170.28 0 258 0 C258 30.36 258 60.72 258 92 C252.39 92 246.78 92 241 92 C241 67.25 241 42.5 241 17 C167.08 17 93.16 17 17 17 C12.32611784 69.17013338 12.32611784 69.17013338 30 120 C30.598125 120.86625 31.19625 121.7325 31.8125 122.625 C35.93188077 127.09747055 40.94184618 130.30232074 46.6875 132.25 C50.99405152 134.52515929 52.23184194 137.22078314 54.51171875 141.41796875 C56.59695937 145.03566967 59.22387417 147.89338301 62 151 C62 151.33 62 151.66 62 152 C46.30920063 152.91107867 32.91906324 148.08573847 20.875 137.9375 C10.03846565 127.63419195 2.92787871 114.63939354 0 100 C0 67 0 34 0 0 Z " fill="#898273" transform="translate(498,406)"/>
<path d="M0 0 C0.89877365 -0.00137466 1.7975473 -0.00274933 2.72355652 -0.00416565 C3.69675842 -0.00057037 4.66996033 0.0030249 5.6726532 0.00672913 C7.22456612 0.00651009 7.22456612 0.00651009 8.80783081 0.00628662 C12.22202157 0.00698238 15.63615754 0.01475908 19.05033875 0.02259827 C21.41973847 0.02446364 23.78913857 0.02588698 26.15853882 0.02688599 C32.39085457 0.03070175 38.62314696 0.04052405 44.85545349 0.05158997 C51.21663599 0.06182428 57.57782226 0.06638794 63.93901062 0.07142639 C76.4175365 0.08214713 88.89604505 0.0992123 101.3745575 0.12025452 C101.3745575 5.73025452 101.3745575 11.34025452 101.3745575 17.12025452 C100.08940247 17.12390015 98.80424744 17.12754578 97.48014832 17.13130188 C85.35638551 17.16827664 73.23287612 17.22607687 61.10930634 17.30415726 C54.87674928 17.34363094 48.6443335 17.37582018 42.41166687 17.39125061 C36.39442549 17.40641756 30.3775725 17.44086473 24.36050415 17.48856354 C22.06729512 17.50337676 19.77403064 17.51129549 17.48077393 17.51213837 C14.26330883 17.51450984 11.04691545 17.5416058 7.82963562 17.57435608 C6.88592102 17.56932571 5.94220642 17.56429535 4.96989441 17.55911255 C-2.12596399 17.67052972 -7.37148675 19.37886878 -12.83247375 23.97962952 C-19.26359166 31.5530141 -21.28759412 37.72203839 -21.04341125 47.73353577 C-20.09641927 55.40682597 -16.7442879 64.110099 -10.6254425 69.12025452 C-1.73835333 75.51716937 8.26182868 80.25637804 17.97416687 85.24671936 C24.91328836 88.81538061 31.76663408 92.48979533 38.5164032 96.40516663 C40.90603502 97.78263274 43.23944581 99.06638362 45.804245 100.08900452 C49.46478602 101.55767143 52.82013618 103.49368919 56.2495575 105.43275452 C56.93147156 105.81109436 57.61338562 106.1894342 58.31596375 106.57923889 C69.49871219 112.87352873 78.27510974 120.62358356 82.7495575 133.12806702 C85.49805699 146.28650834 83.61495233 158.51198111 76.5620575 169.93275452 C70.49325458 178.45037265 62.36272217 183.31256352 52.3745575 186.12025452 C49.4520223 186.39155153 46.54857477 186.37362775 43.61528015 186.3473053 C42.75608978 186.34759735 41.89689941 186.3478894 41.01167297 186.34819031 C38.18721729 186.34680305 35.36302928 186.33127036 32.53862 186.31556702 C30.57421513 186.31183474 28.6098084 186.30898878 26.645401 186.30699158 C21.48658569 186.29937204 16.3278838 186.27973797 11.16911316 186.25758362 C5.90037063 186.23708899 0.63160969 186.22798213 -4.63716125 186.21791077 C-14.96664608 186.19649049 -25.29601709 186.16132202 -35.6254425 186.12025452 C-35.6254425 180.51025452 -35.6254425 174.90025452 -35.6254425 169.12025452 C-33.06737854 169.12138245 -30.50931458 169.12251038 -27.87373352 169.12367249 C-19.3998958 169.12304355 -10.92641512 169.08950136 -2.45272923 169.03997612 C2.68244932 169.01096557 7.81717284 168.99287011 12.95243835 169.00013733 C17.91298995 169.00674876 22.87264386 168.98414243 27.83300972 168.94169998 C29.72068649 168.93060102 31.60845466 168.92983952 33.49613762 168.93983078 C46.51190676 169.31546082 46.51190676 169.31546082 57.86004639 163.68522644 C63.36084087 158.00115528 65.0027772 152.28419382 65.6870575 144.62025452 C65.11744772 138.24062506 63.01661092 132.64328093 58.3745575 128.12025452 C51.43610149 123.53782646 44.01787441 119.77575591 36.6245575 115.99525452 C27.44411593 111.26339808 18.33193632 106.42937357 9.29057312 101.43690491 C4.93819932 99.03936371 0.57343358 96.69368799 -3.86763 94.46400452 C-17.57299946 87.56785667 -26.86542484 80.70543134 -34.6254425 67.12025452 C-35.16298157 66.26947327 -35.70052063 65.41869202 -36.25434875 64.54212952 C-39.30766657 59.14880461 -38.80893236 53.53453661 -38.8129425 47.49525452 C-38.83131165 46.07406311 -38.83131165 46.07406311 -38.85005188 44.62416077 C-38.87779766 31.10271864 -35.6371478 21.55506067 -26.5004425 11.37025452 C-19.31815492 4.61237483 -9.89678687 -0.01173996 0 0 Z " fill="#8E8676" transform="translate(593.6254425048828,462.87974548339844)"/>
<path d="M0 0 C2.31 0 4.62 0 7 0 C7 16.5 7 33 7 50 C5.02 50 3.04 50 1 50 C1 48.68 1 47.36 1 46 C0.236875 46.66 -0.52625 47.32 -1.3125 48 C-5.81606964 50.99165698 -10.80318946 50.92035118 -16 50 C-19 47.8125 -19 47.8125 -21 45 C-21.52722656 44.27039063 -22.05445313 43.54078125 -22.59765625 42.7890625 C-24.38957664 39.22518741 -24.43349567 36.53879748 -24.4375 32.5625 C-24.45683594 31.28503906 -24.47617187 30.00757813 -24.49609375 28.69140625 C-23.78895319 23.42961229 -21.08932708 19.37813976 -17 16 C-14.25570004 15.08523335 -12.40966906 14.80761556 -9.5625 14.75 C-8.80066406 14.72421875 -8.03882813 14.6984375 -7.25390625 14.671875 C-5 15 -5 15 -1 18 C-0.67 12.06 -0.34 6.12 0 0 Z " fill="#797367" transform="translate(501,725)"/>
<path d="M0 0 C2.31 0 4.62 0 7 0 C7 16.5 7 33 7 50 C5.02 50 3.04 50 1 50 C1 48.68 1 47.36 1 46 C0.34 46 -0.32 46 -1 46 C-1 46.66 -1 47.32 -1 48 C-5.76433036 50.79133708 -10.62243548 50.79105332 -16 50 C-19 47.75 -19 47.75 -21 45 C-21.52980469 44.41476562 -22.05960938 43.82953125 -22.60546875 43.2265625 C-24.4745805 40.24226644 -24.36549911 38.12294129 -24.3125 34.625 C-24.30863281 33.52414062 -24.30476562 32.42328125 -24.30078125 31.2890625 C-23.70830223 24.81026592 -21.88031673 21.28515616 -17 17 C-13.91479997 14.94319998 -13.08726496 14.70533186 -9.5625 14.6875 C-8.80066406 14.67074219 -8.03882813 14.65398438 -7.25390625 14.63671875 C-5 15 -5 15 -1 18 C-0.67 12.06 -0.34 6.12 0 0 Z " fill="#867F71" transform="translate(754,725)"/>
<path d="M0 0 C2.31 0 4.62 0 7 0 C7.01458252 0.97348389 7.02916504 1.94696777 7.04418945 2.94995117 C7.10233296 6.57515476 7.17956377 10.1997476 7.26245117 13.82446289 C7.29562532 15.39076801 7.32368058 16.95719051 7.34643555 18.52368164 C7.38012116 20.78061763 7.43244049 23.03648526 7.48828125 25.29296875 C7.49467117 25.98899704 7.5010611 26.68502533 7.50764465 27.40214539 C7.6732308 32.92588196 9.12989738 36.12989738 13 40 C17.47232974 41.18963971 21.07670197 41.33574474 25.4375 39.75 C28.20936775 38.09141655 28.20936775 38.09141655 30 35 C30.24047646 32.31995798 30.37273498 29.73445797 30.4140625 27.05078125 C30.43342865 26.27816452 30.4527948 25.50554779 30.4727478 24.70951843 C30.53248479 22.2439576 30.57890486 19.77834993 30.625 17.3125 C30.66318525 15.6399537 30.70223731 13.96742695 30.7421875 12.29492188 C30.83818133 8.19677353 30.92223377 4.09853312 31 0 C33.31 0 35.62 0 38 0 C38.09954745 4.69557647 38.17178467 9.39052663 38.21972656 14.08691406 C38.23973053 15.68142408 38.26694301 17.27586178 38.30175781 18.87011719 C38.65244546 35.35243651 38.65244546 35.35243651 34 42 C28.98311854 46.89145943 24.89863253 47.16245081 18.0625 47.25 C16.85722656 47.27578125 15.65195312 47.3015625 14.41015625 47.328125 C10.71987966 46.97304684 8.93338028 46.21308405 6 44 C0.98637111 37.69715226 -0.26111826 31.46475048 -0.1953125 23.53515625 C-0.1924826 22.85698349 -0.18965271 22.17881073 -0.18673706 21.48008728 C-0.17565416 19.34070234 -0.1505736 17.2017557 -0.125 15.0625 C-0.11495476 13.60091756 -0.10583163 12.13932847 -0.09765625 10.67773438 C-0.07575425 7.11835021 -0.04130866 3.55921797 0 0 Z " fill="#787367" transform="translate(370,728)"/>
<path d="M0 0 C1.13953125 -0.02578125 2.2790625 -0.0515625 3.453125 -0.078125 C8.37921113 0.41214898 10.83831926 2.21511916 14.0625 5.875 C15.75 9.25 15.75 9.25 15.75 18.25 C8.16 18.25 0.57 18.25 -7.25 18.25 C-6.24779798 26.07062059 -6.24779798 26.07062059 -2.25 28.25 C3.09899492 28.79318537 8.49842433 28.35559488 13.75 27.25 C14.08 28.57 14.41 29.89 14.75 31.25 C8.37039474 34.81070991 1.95802928 35.36660907 -5.25 34.25 C-9.40725219 32.18556248 -11.5971748 29.19764948 -14.1875 25.4375 C-16.06538005 19.80385984 -15.84831939 15.13942967 -14.0625 9.5 C-12.168786 6.1043749 -10.13646222 3.83262409 -7.25 1.25 C-5.39709648 -0.60290352 -2.48375369 0.03341373 0 0 Z " fill="#847E70" transform="translate(697.25,740.75)"/>
<path d="M0 0 C3.49228493 2.34455684 5.15575642 5.31151284 7 9 C7 11.97 7 14.94 7 18 C-0.92 18 -8.84 18 -17 18 C-14.84139932 25.43446931 -14.84139932 25.43446931 -12 28 C-6.32562999 28.61204357 -0.59775505 27.97352262 5 27 C5.33 28.32 5.66 29.64 6 31 C-0.37200537 34.55646811 -6.80034754 35.13202083 -14 34 C-18.35414061 31.73877404 -21.19790063 28.5597305 -23 24 C-23.68544705 17.50841327 -23.25623876 11.12407663 -21 5 C-14.87669714 -0.97022028 -8.27527618 -1.18352418 0 0 Z " fill="#7F7B6E" transform="translate(550,741)"/>
<path d="M0 0 C0.33 1.65 0.66 3.3 1 5 C-0.75 5.625 -0.75 5.625 -3 6 C-3.5775 5.690625 -4.155 5.38125 -4.75 5.0625 C-8.29778334 3.38715787 -11.08937174 3.68963268 -15 4 C-17.16666667 4.83333333 -17.16666667 4.83333333 -18 7 C-18.23059307 9.71885319 -18.13475823 12.25991592 -18 15 C-17.21625 15.2475 -16.4325 15.495 -15.625 15.75 C-1.16292975 20.73692078 -1.16292975 20.73692078 2 25 C3.35707841 29.07123523 3.6603898 32.74737998 3 37 C1.05872127 40.55276493 -1.64302131 42.76201421 -5 45 C-7.65412755 45.24891491 -10.15867843 45.37018799 -12.8125 45.375 C-13.51181641 45.39949219 -14.21113281 45.42398438 -14.93164062 45.44921875 C-20.19201326 45.47874376 -22.88565948 44.26822026 -27 41 C-26.49396008 38.83125748 -26.00016187 37.00032373 -25 35 C-22.50638429 36.20381448 -20.31856917 37.45428722 -18 39 C-13.95861299 39.57308803 -10.22043287 39.50603314 -6.4375 37.9375 C-4.72496057 35.9279515 -4.72496057 35.9279515 -4.375 32.5625 C-4.64959202 28.87834043 -4.64959202 28.87834043 -7.375 26.8125 C-10.17245651 25.24059587 -13.12316371 24.18152773 -16.125 23.0625 C-21.1468184 21.15194353 -23.58636849 18.82726301 -26 14 C-26.45813548 7.92970492 -25.41076984 4.81256482 -21.5 0.25 C-15.88014376 -4.43321354 -6.28301025 -2.18539487 0 0 Z " fill="#8B8677" transform="translate(881,730)"/>
<path d="M0 0 C1.11375 0.7425 1.11375 0.7425 2.25 1.5 C1.92 2.82 1.59 4.14 1.25 5.5 C-1.35905973 6.46631842 -2.43603175 6.62728443 -5.0625 5.5625 C-8.48689672 4.20866874 -11.09783073 4.16183618 -14.75 4.5 C-16.81402685 5.48048938 -16.81402685 5.48048938 -17.75 7.5 C-18.29486932 11.57726105 -18.29486932 11.57726105 -16.51953125 15.109375 C-14.38455999 16.78718906 -12.70549924 17.16912105 -10.0625 17.75 C-4.49220368 19.34501877 -0.09357966 21.63414016 3.25 26.5 C4.35747979 31.13983362 3.8705978 34.99750007 2.0625 39.375 C1.464375 40.07625 0.86625 40.7775 0.25 41.5 C-0.389375 42.263125 -1.02875 43.02625 -1.6875 43.8125 C-7.4020874 46.96135428 -14.60002717 46.26753013 -20.8125 44.625 C-23.75 43.5 -23.75 43.5 -26.75 41.5 C-26.09 39.85 -25.43 38.2 -24.75 36.5 C-22.59305482 36.96220254 -20.83298959 37.45404998 -18.89453125 38.52734375 C-16.47006852 39.62696346 -14.83430163 39.73676365 -12.1875 39.6875 C-11.42308594 39.68105469 -10.65867187 39.67460938 -9.87109375 39.66796875 C-7.56102284 39.57053505 -7.56102284 39.57053505 -4.75 38.5 C-4.440625 36.6128125 -4.440625 36.6128125 -4.125 34.6875 C-4.00898437 33.97980469 -3.89296875 33.27210938 -3.7734375 32.54296875 C-3.55422152 30.18244176 -3.55422152 30.18244176 -5.75 27.5 C-8.67902911 26.1811255 -8.67902911 26.1811255 -12.0625 25.0625 C-17.47875422 23.19120578 -22.18352986 21.33456501 -25.0625 16.125 C-26.28226902 11.46770011 -26.34373187 8.6646279 -24.125 4.3125 C-18.37693189 -2.49442276 -8.06649516 -4.03324758 0 0 Z " fill="#868073" transform="translate(833.75,729.5)"/>
<path d="M0 0 C3.06163096 1.73854618 5.40059772 3.80119543 7 7 C7.08543895 9.10528933 7.10714725 11.21331157 7.09765625 13.3203125 C7.09443359 14.57714844 7.09121094 15.83398438 7.08789062 17.12890625 C7.07951172 18.44761719 7.07113281 19.76632812 7.0625 21.125 C7.05748489 22.46484211 7.05292201 23.804686 7.04882812 25.14453125 C7.03701086 28.42973206 7.02053617 31.71484397 7 35 C5.02 35 3.04 35 1 35 C0.98018066 34.29391602 0.96036133 33.58783203 0.93994141 32.86035156 C0.84459585 29.65653006 0.73495487 26.45335199 0.625 23.25 C0.5940625 22.13882813 0.563125 21.02765625 0.53125 19.8828125 C0.49257813 18.81289063 0.45390625 17.74296875 0.4140625 16.640625 C0.36693115 15.16384277 0.36693115 15.16384277 0.31884766 13.65722656 C-0.00102258 10.99147799 -0.64368621 9.29383595 -2 7 C-7.26326505 6.53564595 -7.26326505 6.53564595 -12.09570312 8.15820312 C-14.69114859 10.66846474 -14.53696589 12.19557028 -14.609375 15.76171875 C-14.64160156 16.87998047 -14.67382812 17.99824219 -14.70703125 19.15039062 C-14.72830078 20.90125977 -14.72830078 20.90125977 -14.75 22.6875 C-14.77964844 23.86634766 -14.80929687 25.04519531 -14.83984375 26.25976562 C-14.91061656 29.17324632 -14.96327725 32.08592336 -15 35 C-17.31 35 -19.62 35 -22 35 C-22 23.78 -22 12.56 -22 1 C-20.02 1 -18.04 1 -16 1 C-16 2.32 -16 3.64 -16 5 C-15.030625 4.175 -14.06125 3.35 -13.0625 2.5 C-8.83057729 -0.49832581 -5.06467321 -1.17654841 0 0 Z " fill="#746F63" transform="translate(451,740)"/>
<path d="M0 0 C4.06429263 2.06909443 6.38883758 3.73988344 8 8 C8.22705078 10.93261719 8.22705078 10.93261719 8.1953125 14.296875 C8.18886719 15.50214844 8.18242188 16.70742188 8.17578125 17.94921875 C8.15902344 19.20347656 8.14226563 20.45773437 8.125 21.75 C8.11597656 23.01972656 8.10695313 24.28945313 8.09765625 25.59765625 C8.07409005 28.73196093 8.04118832 31.86588541 8 35 C5.69 35 3.38 35 1 35 C0.97494385 34.18732666 0.9498877 33.37465332 0.92407227 32.53735352 C0.80850882 28.87889248 0.68560416 25.22071472 0.5625 21.5625 C0.52318359 20.28310547 0.48386719 19.00371094 0.44335938 17.68554688 C0.40146484 16.47060547 0.35957031 15.25566406 0.31640625 14.00390625 C0.27974854 12.87799072 0.24309082 11.7520752 0.20532227 10.59204102 C0.28781955 8.07146559 0.28781955 8.07146559 -1 7 C-2.99749319 6.72290073 -2.99749319 6.72290073 -5.3125 6.6875 C-6.09238281 6.65011719 -6.87226562 6.61273437 -7.67578125 6.57421875 C-10.9061698 7.16600422 -11.94543413 8.47531936 -14 11 C-14.6363651 13.69237987 -14.6363651 13.69237987 -14.609375 16.640625 C-14.64160156 17.71054687 -14.67382812 18.78046875 -14.70703125 19.8828125 C-14.72121094 20.99398437 -14.73539063 22.10515625 -14.75 23.25 C-14.77964844 24.37664063 -14.80929687 25.50328125 -14.83984375 26.6640625 C-14.91048912 29.44278021 -14.96321277 32.22066148 -15 35 C-16.98 35 -18.96 35 -21 35 C-21 23.78 -21 12.56 -21 1 C-19.02 1 -17.04 1 -15 1 C-14.67 1.99 -14.34 2.98 -14 4 C-13.360625 3.34 -12.72125 2.68 -12.0625 2 C-7.95616252 -0.68168978 -4.78233634 -0.84196062 0 0 Z " fill="#7F796D" transform="translate(656,740)"/>
<path d="M0 0 C1.33804688 0.04060547 1.33804688 0.04060547 2.703125 0.08203125 C3.37859375 0.11683594 4.0540625 0.15164063 4.75 0.1875 C4.75 2.1675 4.75 4.1475 4.75 6.1875 C1.78 6.8475 -1.19 7.5075 -4.25 8.1875 C-4.58 10.8275 -4.91 13.4675 -5.25 16.1875 C-2.28 16.1875 0.69 16.1875 3.75 16.1875 C3.75 17.8375 3.75 19.4875 3.75 21.1875 C0.78 21.1875 -2.19 21.1875 -5.25 21.1875 C-5.25 30.7575 -5.25 40.3275 -5.25 50.1875 C-7.56 50.1875 -9.87 50.1875 -12.25 50.1875 C-12.25 40.6175 -12.25 31.0475 -12.25 21.1875 C-13.9 21.1875 -15.55 21.1875 -17.25 21.1875 C-17.25 19.5375 -17.25 17.8875 -17.25 16.1875 C-15.6 16.1875 -13.95 16.1875 -12.25 16.1875 C-12.3428125 14.640625 -12.3428125 14.640625 -12.4375 13.0625 C-12.20181417 8.19165953 -11.08160205 4.89458524 -7.46875 1.52734375 C-4.75967481 -0.10859426 -3.13599491 -0.12378927 0 0 Z " fill="#7B7669" transform="translate(589.25,724.8125)"/>
<path d="M0 0 C0.99 0 1.98 0 3 0 C3 33.33333333 3 66.66666667 3 100 C8.61 100 14.22 100 20 100 C20 100.33 20 100.66 20 101 C69.995 101.495 69.995 101.495 121 102 C121 102.33 121 102.66 121 103 C81.07 103 41.14 103 0 103 C0 69.01 0 35.02 0 0 Z " fill="#737168" transform="translate(498,597)"/>
<path d="M0 0 C2.1875 1.5546875 2.1875 1.5546875 4 4 C4.56640625 7.49609375 4.56640625 7.49609375 4.5625 11.4375 C4.58441406 12.73558594 4.60632813 14.03367187 4.62890625 15.37109375 C3.85581179 19.83199284 2.56683134 21.28900319 -1 24 C-4.0758681 24.9737385 -5.67615536 24.52759439 -9 24 C-13.03422329 20.17265995 -14.15545137 16.56384204 -14.3125 11.125 C-14.28051678 7.47358227 -14.10107204 6.1707769 -12.1875 2.9375 C-8.41746461 -0.40167421 -4.88096303 -0.42815465 0 0 Z " fill="#070606" transform="translate(497,746)"/>
<path d="M0 0 C1.12921875 0.04640625 1.12921875 0.04640625 2.28125 0.09375 C3.0340625 0.1040625 3.786875 0.114375 4.5625 0.125 C7.51593666 0.74896549 8.76909986 1.29864125 10.78125 3.59375 C11.18826968 6.55960667 11.34083396 9.07439604 11.28125 12.03125 C11.29671875 12.79501953 11.3121875 13.55878906 11.328125 14.34570312 C11.30228916 18.05637606 11.19345673 20.01431028 9 23.09765625 C6.00799758 25.11515084 4.19455648 25.16217825 0.68359375 24.9921875 C-2.21641139 24.38479423 -3.50183671 22.92875208 -5.21875 20.59375 C-6.61740903 17.79643195 -6.46412267 15.40090441 -6.53125 12.28125 C-6.56863281 11.15074219 -6.60601563 10.02023437 -6.64453125 8.85546875 C-6.06907219 4.44713556 -4.52393148 1.21062955 0 0 Z " fill="#080707" transform="translate(743.21875,745.40625)"/>
<path d="M0 0 C0.33 0 0.66 0 1 0 C1.06058594 0.84304688 1.12117188 1.68609375 1.18359375 2.5546875 C1.26738281 3.65039062 1.35117187 4.74609375 1.4375 5.875 C1.51871094 6.96554687 1.59992188 8.05609375 1.68359375 9.1796875 C1.83001703 11.94728971 1.83001703 11.94728971 3 14 C3.10859596 16.57229906 3.15731457 19.11793891 3.16113281 21.69091797 C3.16609772 22.48457764 3.17106262 23.2782373 3.17617798 24.09594727 C3.19081286 26.72803608 3.19760372 29.36006464 3.203125 31.9921875 C3.20887527 33.81820681 3.21463302 35.6442261 3.22039795 37.47024536 C3.23091165 41.30194379 3.23675193 45.13362121 3.24023438 48.96533203 C3.24572049 53.87723656 3.26974943 58.78886407 3.29820633 63.70068169 C3.31682196 67.47361057 3.32203773 71.24647258 3.32357025 75.01944351 C3.32659965 76.83035929 3.33463782 78.64127382 3.34775543 80.45214462 C3.36479395 82.98507566 3.36294124 85.51732801 3.35644531 88.05029297 C3.3656601 88.79953033 3.37487488 89.5487677 3.3843689 90.32070923 C3.34686481 94.98464416 2.9592685 96.05430867 0 100 C0 67 0 34 0 0 Z " fill="#717068" transform="translate(498,406)"/>
<path d="M0 0 C34.32 0 68.64 0 104 0 C104 6.27 104 12.54 104 19 C100.89029785 19.01981934 97.7805957 19.03963867 94.57666016 19.06005859 C84.32270839 19.12685016 74.06885969 19.20449097 63.81502724 19.28752708 C57.5957832 19.33755523 51.3765567 19.38388456 45.15722656 19.421875 C39.15956232 19.45864559 33.16204249 19.5049828 27.16450119 19.55806351 C24.87190652 19.57665132 22.57928084 19.5917429 20.28664017 19.60334396 C17.08498472 19.62013152 13.8836632 19.64914807 10.68212891 19.68115234 C9.24822563 19.68439262 9.24822563 19.68439262 7.78535461 19.68769836 C6.91594742 19.69886185 6.04654022 19.71002533 5.15078735 19.7215271 C4.39307352 19.72705786 3.63535969 19.73258862 2.85468483 19.73828697 C0.75396189 19.84512486 0.75396189 19.84512486 -1 22 C-4.125 22.125 -4.125 22.125 -7 22 C-4.56403087 19.33203381 -2.73759099 18.10726004 0.99335003 17.87695217 C2.1395996 17.87833486 2.1395996 17.87833486 3.30900574 17.87974548 C4.62779976 17.87768349 4.62779976 17.87768349 5.97323608 17.87557983 C7.41577255 17.88097275 7.41577255 17.88097275 8.88745117 17.88647461 C9.90226059 17.88632858 10.91707001 17.88618256 11.96263123 17.8860321 C15.32276535 17.88672974 18.68284429 17.89451522 22.04296875 17.90234375 C24.37038645 17.90420846 26.69780454 17.90563211 29.02522278 17.90663147 C35.15564047 17.91045249 41.28603453 17.92027926 47.41644287 17.93133545 C53.67020345 17.94155848 59.92396785 17.94613101 66.17773438 17.95117188 C78.45183331 17.96190187 90.72591469 17.97897334 103 18 C103 12.39 103 6.78 103 1 C69.01 1 35.02 1 0 1 C0 0.67 0 0.34 0 0 Z " fill="#3B3632" transform="translate(592,462)"/>
<path d="M0 0 C2.5625 0.9375 2.5625 0.9375 4 3 C4.62701671 6.12905454 4.63021457 8.87084764 4 12 C1.56579582 15.50811779 0.20657416 16.77376734 -4 17.5625 C-7.92509607 16.82654449 -9.46508106 16.13137045 -12 13 C-12.70592378 8.93094881 -13.20560391 4.71638936 -10.74609375 1.21484375 C-7.47767458 -1.05915706 -3.80874293 -0.47437412 0 0 Z " fill="#6E7064" transform="translate(518,803)"/>
<path d="M0 0 C1.98 0 3.96 0 6 0 C6.33 0.99 6.66 1.98 7 3 C9.01508358 3.73323796 9.01508358 3.73323796 11 4 C9.84826645 6.46800047 8.95216435 8.04783565 7 10 C6.62864085 12.52037964 6.62864085 12.52037964 6.5859375 15.4453125 C6.54726563 16.52167969 6.50859375 17.59804688 6.46875 18.70703125 C6.4378125 19.83496094 6.406875 20.96289062 6.375 22.125 C6.33632813 23.26066406 6.29765625 24.39632812 6.2578125 25.56640625 C6.16332399 28.37743956 6.07776459 31.18846233 6 34 C4.02 34 2.04 34 0 34 C0 22.78 0 11.56 0 0 Z " fill="#878274" transform="translate(635,741)"/>
<path d="M0 0 C1.32 0.33 2.64 0.66 4 1 C4.66 0.67 5.32 0.34 6 0 C7.99960012 -0.039992 10.00047242 -0.04346799 12 0 C12 0.66 12 1.32 12 2 C12.99 1.34 13.98 0.68 15 0 C18.5625 -0.3125 18.5625 -0.3125 22 0 C24.49118953 3.7367843 24.2065226 5.74451819 24.125 10.1875 C24.10695313 11.45980469 24.08890625 12.73210938 24.0703125 14.04296875 C24.04710937 15.01878906 24.02390625 15.99460937 24 17 C23.01 17 22.02 17 21 17 C20.505 10.565 20.505 10.565 20 4 C18.68 3.67 17.36 3.34 16 3 C14.12175109 4.87824891 14.60897603 8.03935276 14.4375 10.5625 C14.35371094 11.76003906 14.26992188 12.95757813 14.18359375 14.19140625 C14.12300781 15.11824219 14.06242188 16.04507813 14 17 C12.68 17 11.36 17 10 17 C9.67 12.38 9.34 7.76 9 3 C7.68 3.33 6.36 3.66 5 4 C4.67 7.96 4.34 11.92 4 16 C2.68 16 1.36 16 0 16 C0 10.72 0 5.44 0 0 Z " fill="#605E56" transform="translate(592,803)"/>
<path d="M0 0 C1.98 0 3.96 0 6 0 C6 11.22 6 22.44 6 34 C4.02 34 2.04 34 0 34 C0 22.78 0 11.56 0 0 Z " fill="#8B8478" transform="translate(607,741)"/>
<path d="M0 0 C0.33 0 0.66 0 1 0 C1.7595682 7.59568204 1.7595682 7.59568204 -0.0078125 10.86328125 C-3.13310203 14.63421443 -5.64466829 16.87289146 -10.58203125 17.3359375 C-11.99204548 17.35981356 -13.40228595 17.37244295 -14.8125 17.375 C-15.51181641 17.39949219 -16.21113281 17.42398438 -16.93164062 17.44921875 C-22.19201326 17.47874376 -24.88565948 16.26822026 -29 13 C-28.49396008 10.83125748 -28.00016187 9.00032373 -27 7 C-24.50638429 8.20381448 -22.31856917 9.45428722 -20 11 C-15.9668711 11.57191699 -12.23347705 11.55506467 -8.5 9.875 C-6.48334385 7.35417981 -6.28172193 5.16937172 -6 2 C-5.67 2 -5.34 2 -5 2 C-4.67 3.65 -4.34 5.3 -4 7 C-3.01 7 -2.02 7 -1 7 C-0.67 4.69 -0.34 2.38 0 0 Z " fill="#7E7A6B" transform="translate(883,758)"/>
<path d="M0 0 C5 0 10 0 15 0 C16.19625 -0.061875 17.3925 -0.12375 18.625 -0.1875 C19.73875 -0.125625 20.8525 -0.06375 22 0 C24.49118953 3.7367843 24.2065226 5.74451819 24.125 10.1875 C24.10695313 11.45980469 24.08890625 12.73210938 24.0703125 14.04296875 C24.04710937 15.01878906 24.02390625 15.99460937 24 17 C23.01 17 22.02 17 21 17 C20.505 10.565 20.505 10.565 20 4 C17.525 3.505 17.525 3.505 15 3 C13.12175109 4.87824891 13.60897603 8.03935276 13.4375 10.5625 C13.35371094 11.76003906 13.26992188 12.95757813 13.18359375 14.19140625 C13.12300781 15.11824219 13.06242188 16.04507813 13 17 C12.01 17 11.02 17 10 17 C9.67 12.38 9.34 7.76 9 3 C7.35 3.33 5.7 3.66 4 4 C3.67 7.96 3.34 11.92 3 16 C2.01 16 1.02 16 0 16 C0 10.72 0 5.44 0 0 Z " fill="#726F65" transform="translate(545,803)"/>
<path d="M0 0 C1.65 0 3.3 0 5 0 C5 16.17 5 32.34 5 49 C3.68 48.67 2.36 48.34 1 48 C1.33 46.68 1.66 45.36 2 44 C2 44.99 2 45.98 2 47 C2.66 47 3.32 47 4 47 C3.67 39.08 3.34 31.16 3 23 C1.00383446 24.99616554 1.59016573 28.81701963 1.4375 31.5625 C1.39431641 32.27341797 1.35113281 32.98433594 1.30664062 33.71679688 C1.20028223 35.47761912 1.09961154 37.2387832 1 39 C0.67 39 0.34 39 0 39 C-0.03738281 37.97519531 -0.07476563 36.95039062 -0.11328125 35.89453125 C-0.17897079 34.53381938 -0.24541709 33.17314389 -0.3125 31.8125 C-0.33505859 31.13896484 -0.35761719 30.46542969 -0.38085938 29.77148438 C-0.61595554 25.39014677 -1.42442686 22.55608624 -4 19 C-2.68 19 -1.36 19 0 19 C0 12.73 0 6.46 0 0 Z " fill="#938C7F" transform="translate(755,726)"/>
<path d="M0 0 C2.87996597 2.87996597 2.35433041 5.83492215 2.4140625 9.69921875 C2.43351929 10.47822037 2.45297607 11.25722198 2.47302246 12.05982971 C2.53364125 14.60227444 2.57982523 17.14473756 2.625 19.6875 C2.6621088 21.42872142 2.69970751 23.16993248 2.73779297 24.91113281 C2.93555034 34.35611738 3.09094479 43.80292256 3.125 53.25 C3.13200928 54.54683716 3.13200928 54.54683716 3.13916016 55.86987305 C3.12426808 61.63711457 2.64252113 67.26830356 2 73 C8.93 73.495 8.93 73.495 16 74 C16 74.33 16 74.66 16 75 C10.72 75 5.44 75 0 75 C0 50.25 0 25.5 0 0 Z " fill="#A09789" transform="translate(739,423)"/>
<path d="M0 0 C0.66 0.33 1.32 0.66 2 1 C1.67 1.99 1.34 2.98 1 4 C0.39671875 3.88140625 -0.2065625 3.7628125 -0.828125 3.640625 C-5.8812301 2.7541499 -5.8812301 2.7541499 -10.5625 4.4375 C-12.57789749 8.0301651 -12.78189282 10.97530961 -12 15 C-10.75 17.75 -10.75 17.75 -8 19 C-4.92503332 19.01587762 -2.01252107 18.592205 1 18 C1 18.99 1 19.98 1 21 C-1 23 -1 23 -4.75 23.375 C-9.13513176 23.2554055 -11.67287328 21.93104021 -15 19 C-17.32250299 15.09397224 -17.3997464 11.47715964 -17 7 C-15.60126781 3.58087687 -14.34613174 2.24148726 -11.3125 0.125 C-6.96867591 -1.35026101 -4.47867635 -0.89573527 0 0 Z " fill="#64645C" transform="translate(482,797)"/>
<path d="M0 0 C0.639375 0.804375 1.27875 1.60875 1.9375 2.4375 C3.40603502 4.2750504 3.40603502 4.2750504 5 6 C10.74116691 6.37394574 16.34445544 5.98357297 22 5 C22.33 6.32 22.66 7.64 23 9 C16.64309882 12.54803787 10.18277745 13.16258255 3 12 C0.13913944 10.38989088 -1.92682769 8.53303962 -4 6 C-3.34 5.01 -2.68 4.02 -2 3 C-1.34 3.33 -0.68 3.66 0 4 C0 2.68 0 1.36 0 0 Z " fill="#747164" transform="translate(533,763)"/>
<path d="M0 0 C1.65 0 3.3 0 5 0 C3.68 0.33 2.36 0.66 1 1 C1.66 1.66 2.32 2.32 3 3 C3.66 2.67 4.32 2.34 5 2 C5 11.24 5 20.48 5 30 C3.35 30.66 1.7 31.32 0 32 C0 21.44 0 10.88 0 0 Z " fill="#857F72" transform="translate(371,729)"/>
<path d="M0 0 C0.66 0.99 1.32 1.98 2 3 C0.625 6.6875 0.625 6.6875 -1 10 C-16.32075472 10.45283019 -16.32075472 10.45283019 -23 6 C-22.34 4.35 -21.68 2.7 -21 1 C-18.84305482 1.46220254 -17.08298959 1.95404998 -15.14453125 3.02734375 C-12.72006852 4.12696346 -11.08430163 4.23676365 -8.4375 4.1875 C-7.67308594 4.18105469 -6.90867187 4.17460938 -6.12109375 4.16796875 C-3.81102284 4.07053505 -3.81102284 4.07053505 -1 3 C-0.67 2.01 -0.34 1.02 0 0 Z " fill="#7F766D" transform="translate(830,765)"/>
<path d="M0 0 C2.375 1.125 2.375 1.125 4 3 C4.33 4.98 4.66 6.96 5 9 C-0.94 9 -6.88 9 -13 9 C-11 3 -11 3 -9.3125 1.125 C-6.03056415 -0.47161744 -3.60230309 -0.38596105 0 0 Z " fill="#0E0A0A" transform="translate(702,745)"/>
<path d="M0 0 C2.9375 1.125 2.9375 1.125 5 3 C5 4.98 5 6.96 5 9 C-0.61 9 -6.22 9 -12 9 C-10.46290927 1.31454635 -7.91287456 -0.97175653 0 0 Z " fill="#080707" transform="translate(545,745)"/>
<path d="M0 0 C0.99 0 1.98 0 3 0 C3.33 4.29 3.66 8.58 4 13 C5.65 13 7.3 13 9 13 C10.28446919 10.43106162 10.32977144 8.23423663 10.5625 5.375 C10.64628906 4.37210938 10.73007812 3.36921875 10.81640625 2.3359375 C10.87699219 1.56507813 10.93757812 0.79421875 11 0 C11.99 0 12.98 0 14 0 C14 5.61 14 11.22 14 17 C3.6348223 17.3658298 3.6348223 17.3658298 1.15625 15.9375 C-0.63736487 12.93198318 -0.28253857 10.26556822 -0.1875 6.8125 C-0.16042969 5.54019531 -0.13335938 4.26789062 -0.10546875 2.95703125 C-0.07066406 1.98121094 -0.03585937 1.00539063 0 0 Z " fill="#636159" transform="translate(640,803)"/>
<path d="M0 0 C0.99 0 1.98 0 3 0 C4.32 2.97 5.64 5.94 7 9 C8.99097846 6.01353231 9.94124926 3.40312738 11 0 C12.32 0.33 13.64 0.66 15 1 C10.15123234 17.00905969 10.15123234 17.00905969 6 22 C2.6875 23.0625 2.6875 23.0625 0 23 C0 22.34 0 21.68 0 21 C1.32 20.34 2.64 19.68 4 19 C4.49776367 13.27571784 3.18511283 9.37457874 0.875 4.13671875 C0 2 0 2 0 0 Z " fill="#868079" transform="translate(773,803)"/>
<path d="M0 0 C0.66 1.32 1.32 2.64 2 4 C1.34 4 0.68 4 0 4 C0 4.99 0 5.98 0 7 C1.65 6.67 3.3 6.34 5 6 C5.33 7.98 5.66 9.96 6 12 C6.969375 12.268125 7.93875 12.53625 8.9375 12.8125 C9.948125 13.204375 10.95875 13.59625 12 14 C12.33 14.99 12.66 15.98 13 17 C12.34 17 11.68 17 11 17 C11 18.32 11 19.64 11 21 C5.79229202 19.54668614 1.91649742 17.64659167 -1.3125 13.1875 C-2.56779016 9.19339495 -2.59121532 5.44108733 -1 1.5625 C-0.67 1.046875 -0.34 0.53125 0 0 Z " fill="#81796F" transform="translate(857,733)"/>
<path d="M0 0 C0.88761017 -0.00137466 1.77522034 -0.00274933 2.68972778 -0.00416565 C3.6607695 -0.00057037 4.63181122 0.0030249 5.63227844 0.00672913 C7.16912292 0.00651009 7.16912292 0.00651009 8.73701477 0.00628662 C12.1296143 0.00698429 15.52215919 0.0147699 18.91474915 0.02259827 C21.2645871 0.02446296 23.61442544 0.02588662 25.96426392 0.02688599 C32.15386526 0.03070708 38.34344319 0.04053392 44.53303528 0.05158997 C50.84711897 0.06181283 57.16120644 0.06638549 63.47529602 0.07142639 C75.86788444 0.08215652 88.26045547 0.09922809 100.6530304 0.12025452 C100.6530304 0.45025452 100.6530304 0.78025452 100.6530304 1.12025452 C99.36707977 1.12834137 98.08112915 1.13642822 96.75621033 1.14476013 C84.66007186 1.22211551 72.56404735 1.3098276 60.46805763 1.4077816 C54.2488136 1.45780975 48.0295871 1.50413908 41.81025696 1.54212952 C35.81259272 1.57890011 29.81507289 1.62523732 23.81753159 1.67831802 C21.52493691 1.69690584 19.23231124 1.71199741 16.93967056 1.72359848 C13.73801511 1.74038603 10.53669359 1.76940259 7.3351593 1.80140686 C5.90125603 1.80464714 5.90125603 1.80464714 4.43838501 1.80795288 C3.56897781 1.81911636 2.69957062 1.83027985 1.80381775 1.84178162 C1.04610392 1.84731237 0.28839008 1.85284313 -0.49228477 1.85854149 C-2.59300771 1.96537938 -2.59300771 1.96537938 -4.3469696 4.12025452 C-7.4719696 4.24525452 -7.4719696 4.24525452 -10.3469696 4.12025452 C-7.20067933 0.67431755 -4.58093343 -0.00547304 0 0 Z " fill="#1F1C19" transform="translate(595.3469696044922,479.87974548339844)"/>
<path d="M0 0 C2.31 0 4.62 0 7 0 C7.0493651 4.94790177 7.08570269 9.89566083 7.10986328 14.84375 C7.11993317 16.52769466 7.13358988 18.21162179 7.15087891 19.89550781 C7.17508426 22.31319501 7.18647296 24.73065143 7.1953125 27.1484375 C7.20563507 27.9036972 7.21595764 28.65895691 7.22659302 29.43710327 C7.22699318 31.2929398 7.12222716 33.1481928 7 35 C6.34 35.66 5.68 36.32 5 37 C5.33 37.99 5.66 38.98 6 40 C5.01 40 4.02 40 3 40 C2.01 36.535 2.01 36.535 1 33 C2.485 32.505 2.485 32.505 4 32 C5.27861615 29.44276771 5.11336609 27.63262898 5.09765625 24.7734375 C5.09443359 23.7421875 5.09121094 22.7109375 5.08789062 21.6484375 C5.07951172 20.56820312 5.07113281 19.48796875 5.0625 18.375 C5.05798828 17.28703125 5.05347656 16.1990625 5.04882812 15.078125 C5.03701776 12.38536211 5.02054778 9.69270812 5 7 C4.01 7.33 3.02 7.66 2 8 C2.020625 7.030625 2.04125 6.06125 2.0625 5.0625 C2.35618499 2.12534105 2.35618499 2.12534105 1 1 C1 10.9 1 20.8 1 31 C0.67 31 0.34 31 0 31 C0 20.77 0 10.54 0 0 Z " fill="#6B675D" transform="translate(370,728)"/>
<path d="M0 0 C2.31 0 4.62 0 7 0 C7 16.5 7 33 7 50 C6.67 50 6.34 50 6 50 C6 33.83 6 17.66 6 1 C4.35 1 2.7 1 1 1 C1 7.27 1 13.54 1 20 C-4.11809703 22.04723881 -5.81726228 22.01622308 -11 21 C-10.01 20.34 -9.02 19.68 -8 19 C-9.95216435 17.04783565 -11.53199953 16.15173355 -14 15 C-12.58430936 14.91832554 -11.16723195 14.86050302 -9.75 14.8125 C-8.96109375 14.77769531 -8.1721875 14.74289062 -7.359375 14.70703125 C-5 15 -5 15 -1 18 C-0.505 9.09 -0.505 9.09 0 0 Z " fill="#68645C" transform="translate(754,725)"/>
<path d="M0 0 C9.1796875 -0.1953125 9.1796875 -0.1953125 12 0 C14 2 14 2 14.1953125 5.2578125 C14.16050781 7.17207031 14.16050781 7.17207031 14.125 9.125 C14.10695313 10.40632812 14.08890625 11.68765625 14.0703125 13.0078125 C14.04710937 13.99523437 14.02390625 14.98265625 14 16 C13.01 16 12.02 16 11 16 C10.67 12.04 10.34 8.08 10 4 C8.35 3.67 6.7 3.34 5 3 C3.18884044 4.81115956 3.61800552 7.61278227 3.4375 10.0625 C3.31181641 11.71958984 3.31181641 11.71958984 3.18359375 13.41015625 C3.12300781 14.26480469 3.06242188 15.11945312 3 16 C2.01 16 1.02 16 0 16 C0 10.72 0 5.44 0 0 Z " fill="#757369" transform="translate(678,803)"/>
<path d="M0 0 C0.33 0 0.66 0 1 0 C1.125 4.75 1.125 4.75 0 7 C2.97 7.495 2.97 7.495 6 8 C6 5.36 6 2.72 6 0 C6.33 0 6.66 0 7 0 C7 2.97 7 5.94 7 9 C-0.92 9 -8.84 9 -17 9 C-17.33 9.99 -17.66 10.98 -18 12 C-18.33 12.66 -18.66 13.32 -19 14 C-19.66 14 -20.32 14 -21 14 C-22.60725635 10.78548731 -22.05748185 7.56387464 -22 4 C-17.31315199 2.73201507 -12.96705063 3.08894937 -8.1875 3.4375 C-7.00510742 3.51581055 -7.00510742 3.51581055 -5.79882812 3.59570312 C-3.86548471 3.72459269 -1.93267836 3.86149494 0 4 C0 2.68 0 1.36 0 0 Z " fill="#686358" transform="translate(550,750)"/>
<path d="M0 0 C2.52249413 2.31284984 4.46480002 4.92960005 6 8 C6 10.97 6 13.94 6 17 C-1.59 17 -9.18 17 -17 17 C-17 18.65 -17 20.3 -17 22 C-17.33 22 -17.66 22 -18 22 C-18 20.02 -18 18.04 -18 16 C-7.605 15.505 -7.605 15.505 3 15 C1.68 13.35 0.36 11.7 -1 10 C-0.75 6.1875 -0.75 6.1875 0 3 C-3.63 2.34 -7.26 1.68 -11 1 C-11 0.67 -11 0.34 -11 0 C-6.99904918 -1.05907522 -3.9771613 -1.24286291 0 0 Z " fill="#726D61" transform="translate(707,742)"/>
<path d="M0 0 C0.33 0 0.66 0 1 0 C1 7.59 1 15.18 1 23 C-0.65 23 -2.3 23 -4 23 C-4 16.4 -4 9.8 -4 3 C-3.01 3 -2.02 3 -1 3 C-0.67 2.01 -0.34 1.02 0 0 Z " fill="#878274" transform="translate(457,751)"/>
<path d="M0 0 C2.4375 0.8125 2.4375 0.8125 4.4375 2.8125 C4.78240322 6.86511287 4.73913882 8.36004176 2.4375 11.8125 C-0.39431098 12.24816323 -1.92313578 12.20934676 -4.375 10.6875 C-6.11448782 7.94094028 -5.96019128 5.99403026 -5.5625 2.8125 C-3.8855372 0.07640281 -3.22049925 -0.23564629 0 0 Z " fill="#0D0D0E" transform="translate(514.5625,805.1875)"/>
<path d="M0 0 C0.99 0 1.98 0 3 0 C3 1.65 3 3.3 3 5 C4.65 5 6.3 5 8 5 C8 5.66 8 6.32 8 7 C6.35 7 4.7 7 3 7 C3.33 10.63 3.66 14.26 4 18 C5.32 18.33 6.64 18.66 8 19 C8 19.66 8 20.32 8 21 C6.02 21.33 4.04 21.66 2 22 C-0.35119399 18.47320901 -0.21443452 16.97120515 -0.125 12.8125 C-0.10695313 11.72582031 -0.08890625 10.63914062 -0.0703125 9.51953125 C-0.04710937 8.68808594 -0.02390625 7.85664062 0 7 C-0.99 7 -1.98 7 -3 7 C-3 6.34 -3 5.68 -3 5 C-2.01 5 -1.02 5 0 5 C0 3.35 0 1.7 0 0 Z " fill="#7F7C70" transform="translate(744,798)"/>
<path d="M0 0 C0.33 0 0.66 0 1 0 C1.06058594 1.16917969 1.12117188 2.33835937 1.18359375 3.54296875 C1.26804034 5.09115614 1.35268625 6.63933268 1.4375 8.1875 C1.47681641 8.95642578 1.51613281 9.72535156 1.55664062 10.51757812 C1.77581549 14.44586613 2.17591258 18.14517784 3 22 C3.43659711 29.12680578 3.43659711 29.12680578 2 32 C2.99 32 3.98 32 5 32 C5 25.07 5 18.14 5 11 C5.33 11 5.66 11 6 11 C6 18.59 6 26.18 6 34 C4.02 34 2.04 34 0 34 C0 22.78 0 11.56 0 0 Z " fill="#6D6860" transform="translate(429,741)"/>
<path d="M0 0 C0.66 0 1.32 0 2 0 C2.66 1.32 3.32 2.64 4 4 C4.99 4 5.98 4 7 4 C7 6.64 7 9.28 7 12 C-0.59 12 -8.18 12 -16 12 C-16.33 11.01 -16.66 10.02 -17 9 C-10.73 9 -4.46 9 2 9 C1.34 6.03 0.68 3.06 0 0 Z " fill="#8A8477" transform="translate(549,746)"/>
<path d="M0 0 C0.78503906 0.26296875 1.57007813 0.5259375 2.37890625 0.796875 C3.16136719 1.04953125 3.94382812 1.3021875 4.75 1.5625 C7.03379624 2.58837638 8.30672871 3.67566856 9.94140625 5.546875 C8.95140625 5.876875 7.96140625 6.206875 6.94140625 6.546875 C6.61140625 7.206875 6.28140625 7.866875 5.94140625 8.546875 C3.35925564 8.546875 1.28334041 7.80593166 -1.18359375 7.046875 C-2.09367188 6.7684375 -3.00375 6.49 -3.94140625 6.203125 C-4.64007812 5.9865625 -5.33875 5.77 -6.05859375 5.546875 C-5.39859375 5.216875 -4.73859375 4.886875 -4.05859375 4.546875 C-4.05859375 3.226875 -4.05859375 1.906875 -4.05859375 0.546875 C-2.05859375 -0.453125 -2.05859375 -0.453125 0 0 Z " fill="#807A6C" transform="translate(823.05859375,747.453125)"/>
<path d="M0 0 C6.09781001 -0.22084624 11.21642935 -0.01167675 17 2 C17.33 3.65 17.66 5.3 18 7 C14.66279166 8.12764117 12.68716506 7.87990246 9.375 6.75 C8.59898437 6.49734375 7.82296875 6.2446875 7.0234375 5.984375 C5 5 5 5 3 2 C2.01 1.34 1.02 0.68 0 0 Z " fill="#847E71" transform="translate(864,728)"/>
<path d="M0 0 C3.25 -0.25 3.25 -0.25 7 0 C8.35432675 1.31200404 9.68733482 2.64631404 11 4 C14.64721696 4.80765878 14.64721696 4.80765878 18 5 C18 5.33 18 5.66 18 6 C16.8553125 6.1546875 16.8553125 6.1546875 15.6875 6.3125 C12.82940576 7.04364039 11.84257115 7.76951913 10 10 C4.98343041 8.5666944 2.98547118 6.09436048 0 2 C0 1.34 0 0.68 0 0 Z " fill="#837D6F" transform="translate(684,765)"/>
<path d="M0 0 C0.99 0.66 1.98 1.32 3 2 C2.67 3.32 2.34 4.64 2 6 C-1.18769143 7.05543251 -2.94786631 6.97424908 -6.0625 5.75 C-6.73410156 5.49734375 -7.40570312 5.2446875 -8.09765625 4.984375 C-10.15189491 3.9214014 -11.45873165 2.70931942 -13 1 C-8.24291273 -0.97245082 -5.02207144 -1.13707278 0 0 Z " fill="#7C776C" transform="translate(833,729)"/>
<path d="M0 0 C0 0.99 0 1.98 0 3 C-5.34260484 5.72813864 -9.97809337 6.89861785 -16 6 C-16.99 5.34 -17.98 4.68 -19 4 C-15.49033252 2.03458621 -11.8678225 1.05486068 -8 0 C-4.71023192 -1.09658936 -3.28696233 -0.79953138 0 0 Z " fill="#7A766B" transform="translate(556,769)"/>
<path d="M0 0 C0.72159424 1.64363134 1.39351421 3.31050386 2 5 C-1.75399798 6.2039337 -5.33217412 6.09877617 -9.25 6.0625 C-10.51328125 6.05347656 -11.7765625 6.04445313 -13.078125 6.03515625 C-14.04234375 6.02355469 -15.0065625 6.01195312 -16 6 C-14.68 5.34 -13.36 4.68 -12 4 C-12 3.34 -12 2.68 -12 2 C-10.37787941 1.47026689 -8.75218416 0.95146893 -7.125 0.4375 C-6.22007812 0.14746094 -5.31515625 -0.14257812 -4.3828125 -0.44140625 C-2 -1 -2 -1 0 0 Z " fill="#716C5F" transform="translate(397,769)"/>
<path d="M0 0 C3.375 -0.1875 3.375 -0.1875 7 0 C9.49118953 3.7367843 9.2065226 5.74451819 9.125 10.1875 C9.10695313 11.45980469 9.08890625 12.73210938 9.0703125 14.04296875 C9.03550781 15.50669922 9.03550781 15.50669922 9 17 C8.01 17 7.02 17 6 17 C5.67 12.71 5.34 8.42 5 4 C2.525 3.01 2.525 3.01 0 2 C0 1.34 0 0.68 0 0 Z " fill="#757569" transform="translate(607,803)"/>
<path d="M0 0 C2.31 0 4.62 0 7 0 C7.66 1.32 8.32 2.64 9 4 C7.783125 4.04125 6.56625 4.0825 5.3125 4.125 C1.78728525 4.53199637 0.24719867 5.31016733 -2 8.0625 C-2.66 9.031875 -3.32 10.00125 -4 11 C-4.99 10.67 -5.98 10.34 -7 10 C-5.73058503 6.08597051 -4.48832306 4.20927127 -1 2 C-0.34 2.33 0.32 2.66 1 3 C0.67 2.01 0.34 1.02 0 0 Z " fill="#837C70" transform="translate(488,741)"/>
<path d="M0 0 C1.65 0 3.3 0 5 0 C5.625 3.375 5.625 3.375 6 7 C5.34 7.66 4.68 8.32 4 9 C3.67 9 3.34 9 3 9 C3.061875 9.763125 3.12375 10.52625 3.1875 11.3125 C3 14 3 14 0 17 C0 11.39 0 5.78 0 0 Z " fill="#868074" transform="translate(430,741)"/>
<path d="M0 0 C0.66 0.99 1.32 1.98 2 3 C0.625 6.6875 0.625 6.6875 -1 10 C-2.32 10 -3.64 10 -5 10 C-5 9.34 -5 8.68 -5 8 C-7.31 8 -9.62 8 -12 8 C-11.67 7.01 -11.34 6.02 -11 5 C-9.906875 4.855625 -8.81375 4.71125 -7.6875 4.5625 C-4.06877013 4.11711896 -4.06877013 4.11711896 -1 3 C-0.67 2.01 -0.34 1.02 0 0 Z " fill="#757163" transform="translate(830,765)"/>
<path d="M0 0 C1.8871875 0.0309375 1.8871875 0.0309375 3.8125 0.0625 C2.8225 0.7225 1.8325 1.3825 0.8125 2.0625 C1.4725 2.7225 2.1325 3.3825 2.8125 4.0625 C1.1728125 4.68125 1.1728125 4.68125 -0.5 5.3125 C-3.72885063 6.69257326 -5.36127507 7.98675275 -7.1875 11.0625 C-7.8475 12.0525 -8.5075 13.0425 -9.1875 14.0625 C-9.04665204 12.27043453 -8.89966299 10.47885083 -8.75 8.6875 C-8.66878906 7.68976562 -8.58757813 6.69203125 -8.50390625 5.6640625 C-8.1875 3.0625 -8.1875 3.0625 -7.1875 1.0625 C-4.43671116 0.14557039 -2.82801087 -0.04636083 0 0 Z " fill="#8C887B" transform="translate(822.1875,727.9375)"/>
<path d="M0 0 C1.45792884 -0.05399736 2.91642712 -0.09279177 4.375 -0.125 C5.18710937 -0.14820313 5.99921875 -0.17140625 6.8359375 -0.1953125 C9 0 9 0 11 2 C11 2.99 11 3.98 11 5 C9.06280622 5.05406122 7.12518079 5.09282025 5.1875 5.125 C4.10855469 5.14820313 3.02960937 5.17140625 1.91796875 5.1953125 C-1 5 -1 5 -4 3 C-2.68 3 -1.36 3 0 3 C0 2.01 0 1.02 0 0 Z " fill="#827C6E" transform="translate(865,770)"/>
<path d="M0 0 C1.60332791 -0.08121924 3.20784026 -0.13929134 4.8125 -0.1875 C6.15248047 -0.23970703 6.15248047 -0.23970703 7.51953125 -0.29296875 C10.48401053 0.0571666 11.08190078 0.81809344 13 3 C13.99 3.33 14.98 3.66 16 4 C15.67 5.32 15.34 6.64 15 8 C14.44828125 7.50886719 13.8965625 7.01773438 13.328125 6.51171875 C10.53629931 4.69890576 9.03814259 4.6827049 5.75 4.8125 C4.85796875 4.83957031 3.9659375 4.86664062 3.046875 4.89453125 C2.03367187 4.94673828 2.03367187 4.94673828 1 5 C1 4.34 1 3.68 1 3 C0.01 3.33 -0.98 3.66 -2 4 C-1.34 2.68 -0.68 1.36 0 0 Z " fill="#878375" transform="translate(691,741)"/>
<path d="M0 0 C0.99 0 1.98 0 3 0 C3 5.61 3 11.22 3 17 C2.01 17 1.02 17 0 17 C0 11.39 0 5.78 0 0 Z " fill="#71726B" transform="translate(716,803)"/>
<path d="M0 0 C2.4375 0.1875 2.4375 0.1875 3.4375 1.1875 C3.5625 3.6875 3.5625 3.6875 3.4375 6.1875 C2.4375 7.1875 2.4375 7.1875 -0.625 7.25 C-1.594375 7.229375 -2.56375 7.20875 -3.5625 7.1875 C-4.1875 4.8125 -4.1875 4.8125 -4.5625 2.1875 C-2.5625 0.1875 -2.5625 0.1875 0 0 Z " fill="#878279" transform="translate(610.5625,726.8125)"/>
<path d="M0 0 C2.97 0.495 2.97 0.495 6 1 C6 2.32 6 3.64 6 5 C6.99 5.33 7.98 5.66 9 6 C7.68 6 6.36 6 5 6 C5 4.68 5 3.36 5 2 C4.34 2 3.68 2 3 2 C3 2.66 3 3.32 3 4 C-0.34939881 6.02558881 -2.86962551 6.21738987 -6.75 6.125 C-7.73484375 6.10695313 -8.7196875 6.08890625 -9.734375 6.0703125 C-10.85585938 6.03550781 -10.85585938 6.03550781 -12 6 C-9.38371859 4.61389064 -7.22007546 3.78849504 -4.3125 3 C-3.219375 2.67 -2.12625 2.34 -1 2 C-0.67 1.34 -0.34 0.68 0 0 Z " fill="#766F63" transform="translate(750,769)"/>
<path d="M0 0 C1.67542976 0.28604898 3.34385343 0.61781233 5 1 C5 3.97 5 6.94 5 10 C3.35 10 1.7 10 0 10 C-0.19412181 8.52168779 -0.38012131 7.04230684 -0.5625 5.5625 C-0.66691406 4.73878906 -0.77132812 3.91507813 -0.87890625 3.06640625 C-0.91886719 2.38449219 -0.95882812 1.70257812 -1 1 C-0.67 0.67 -0.34 0.34 0 0 Z " fill="#908C7C" transform="translate(878,756)"/>
<path d="M0 0 C0.66 0 1.32 0 2 0 C3.14077657 3.42232972 3.09815117 6.08673217 3.0625 9.6875 C3.05347656 10.86699219 3.04445313 12.04648437 3.03515625 13.26171875 C3.02355469 14.16535156 3.01195312 15.06898438 3 16 C2.01 16 1.02 16 0 16 C0 10.72 0 5.44 0 0 Z " fill="#7F7A6E" transform="translate(678,803)"/>
<path d="M0 0 C3.7952131 1.49097658 5.61042731 3.75700849 8 7 C7.67 7.66 7.34 8.32 7 9 C6.01 9.33 5.02 9.66 4 10 C3.67 8.35 3.34 6.7 3 5 C2.484375 5.20625 1.96875 5.4125 1.4375 5.625 C-2.03265671 6.15887026 -4.70635791 5.07676761 -8 4 C-8 3.67 -8 3.34 -8 3 C-5.03 3 -2.06 3 1 3 C0.67 2.01 0.34 1.02 0 0 Z " fill="#7A7367" transform="translate(548,741)"/>
<path d="M0 0 C0.33 0 0.66 0 1 0 C1.47493725 4.84435994 1.72418203 7.9563259 -1.125 12.0625 C-4.42316144 14.28517401 -6.10496422 14.45291114 -10 14 C-10 13.34 -10 12.68 -10 12 C-9.21625 11.896875 -8.4325 11.79375 -7.625 11.6875 C-4.66954819 11.22404978 -4.66954819 11.22404978 -3 8 C-2.835 7.175 -2.67 6.35 -2.5 5.5 C-2 3 -2 3 0 0 Z " fill="#595B51" transform="translate(521,806)"/>
<path d="M0 0 C0.66 0.33 1.32 0.66 2 1 C1.67 1.99 1.34 2.98 1 4 C0.39671875 3.91621094 -0.2065625 3.83242188 -0.828125 3.74609375 C-2.02695312 3.59333984 -2.02695312 3.59333984 -3.25 3.4375 C-4.03890625 3.33308594 -4.8278125 3.22867188 -5.640625 3.12109375 C-8.00532874 2.99972651 -9.7511037 3.30366743 -12 4 C-12 3.01 -12 2.02 -12 1 C-7.99071724 -1.83990862 -4.58821702 -0.8140385 0 0 Z " fill="#6E6963" transform="translate(482,797)"/>
<path d="M0 0 C1.32 0.33 2.64 0.66 4 1 C3.67 5.29 3.34 9.58 3 14 C2.01 14 1.02 14 0 14 C0 9.38 0 4.76 0 0 Z " fill="#6A6A5F" transform="translate(555,806)"/>
<path d="M0 0 C2.5625 2 2.5625 2 4 4 C2.29171079 6.10633718 1.47851584 6.93801608 -1.26171875 7.29296875 C-2.06222656 7.25816406 -2.86273438 7.22335937 -3.6875 7.1875 C-4.49574219 7.16042969 -5.30398438 7.13335938 -6.13671875 7.10546875 C-6.75160156 7.07066406 -7.36648438 7.03585937 -8 7 C-7.67 6.34 -7.34 5.68 -7 5 C-4.67843403 4.59270772 -2.3431213 4.25561323 0 4 C-0.33 3.01 -0.66 2.02 -1 1 C-2.98 1.33 -4.96 1.66 -7 2 C-7 2.66 -7 3.32 -7 4 C-7.66 4 -8.32 4 -9 4 C-9 3.34 -9 2.68 -9 2 C-10.32 2.33 -11.64 2.66 -13 3 C-10.82697933 -1.34604134 -4.25407581 -0.59127046 0 0 Z " fill="#5B554B" transform="translate(496,740)"/>
<path d="M0 0 C0.66 0 1.32 0 2 0 C2 5.28 2 10.56 2 16 C-1.11257569 16 -3.10765685 15.82638376 -6 15 C-5.360625 14.71125 -4.72125 14.4225 -4.0625 14.125 C-1.84793921 13.17176549 -1.84793921 13.17176549 -1 11 C-0.7724985 9.12943209 -0.59037189 7.25314042 -0.4375 5.375 C-0.35371094 4.37210938 -0.26992188 3.36921875 -0.18359375 2.3359375 C-0.12300781 1.56507813 -0.06242188 0.79421875 0 0 Z " fill="#86837A" transform="translate(651,803)"/>
<path d="M0 0 C2.3136313 2.09477429 2.9825031 2.93876083 3.875 6.0625 C4.71223141 9.21795889 4.71223141 9.21795889 7.625 10.375 C8.40875 10.58125 9.1925 10.7875 10 11 C10 11.33 10 11.66 10 12 C6.6875 12.6875 6.6875 12.6875 3 13 C1.28125 11.84375 1.28125 11.84375 0 10 C-0.29296875 7.51953125 -0.29296875 7.51953125 -0.1875 4.8125 C-0.16042969 3.91144531 -0.13335937 3.01039063 -0.10546875 2.08203125 C-0.07066406 1.39496094 -0.03585937 0.70789063 0 0 Z " fill="#68695E" transform="translate(506,806)"/>
<path d="M0 0 C0.33 0 0.66 0 1 0 C1.63019694 9.17286652 1.63019694 9.17286652 -1 12.625 C-1.66 13.07875 -2.32 13.5325 -3 14 C-3.99 13.67 -4.98 13.34 -6 13 C-5.690625 12.236875 -5.38125 11.47375 -5.0625 10.6875 C-4.32106407 8.81210323 -3.63771783 6.91315348 -3 5 C-2.34 5 -1.68 5 -1 5 C-0.67 3.35 -0.34 1.7 0 0 Z " fill="#84826F" transform="translate(835,759)"/>
<path d="M0 0 C3.465 1.485 3.465 1.485 7 3 C6.01 3.495 6.01 3.495 5 4 C5 5.32 5 6.64 5 8 C3.68 8 2.36 8 1 8 C0.67 6.68 0.34 5.36 0 4 C-0.66 4 -1.32 4 -2 4 C-1.34 2.68 -0.68 1.36 0 0 Z " fill="#8B8778" transform="translate(814,744)"/>
<path d="M0 0 C0.99 0 1.98 0 3 0 C2.67 0.99 2.34 1.98 2 3 C1.84854901 5.2825699 1.75113021 7.56887706 1.68359375 9.85546875 C1.66281265 10.51710526 1.64203156 11.17874176 1.62062073 11.86042786 C1.55535273 13.96934852 1.49634656 16.07839135 1.4375 18.1875 C1.39429311 19.61915315 1.35067812 21.05079404 1.30664062 22.48242188 C1.19969494 25.98815154 1.09836359 29.49401786 1 33 C0.67 33 0.34 33 0 33 C0 22.11 0 11.22 0 0 Z " fill="#121510" transform="translate(377,728)"/>
<path d="M0 0 C2.625 0.375 2.625 0.375 5 1 C4.67 2.32 4.34 3.64 4 5 C2.68 5.33 1.36 5.66 0 6 C-0.33 8.64 -0.66 11.28 -1 14 C-1.33 14 -1.66 14 -2 14 C-2.05389087 12.04196493 -2.09274217 10.08351091 -2.125 8.125 C-2.14820313 7.03445313 -2.17140625 5.94390625 -2.1953125 4.8203125 C-2 2 -2 2 0 0 Z " fill="#1A1616" transform="translate(683,805)"/>
<path d="M0 0 C0.66 0.66 1.32 1.32 2 2 C4.06874034 2.6425235 4.06874034 2.6425235 6 3 C6.5625 4.9375 6.5625 4.9375 7 7 C6 8 6 8 3.5 8.125 C1 8 1 8 0 7 C-0.04092937 4.66702567 -0.04241723 2.33294775 0 0 Z " fill="#170D11" transform="translate(643,809)"/>
<path d="M0 0 C0.99 0 1.98 0 3 0 C4.65 3.96 6.3 7.92 8 12 C3 10 3 10 1.85546875 7.6171875 C1.63503906 6.71226562 1.41460938 5.80734375 1.1875 4.875 C0.95417969 3.96492187 0.72085938 3.05484375 0.48046875 2.1171875 C0.32191406 1.41851563 0.16335938 0.71984375 0 0 Z " fill="#6A685E" transform="translate(773,803)"/>
<path d="M0 0 C3.3 0.33 6.6 0.66 10 1 C10.33 1.99 10.66 2.98 11 4 C9.7625 4.144375 8.525 4.28875 7.25 4.4375 C4.93610432 4.71549453 2.86851174 5.03806239 0.625 5.6875 C0.08875 5.790625 -0.4475 5.89375 -1 6 C-1.66 5.34 -2.32 4.68 -3 4 C-2.34 4 -1.68 4 -1 4 C-0.67 2.68 -0.34 1.36 0 0 Z " fill="#6D6A5D" transform="translate(537,769)"/>
<path d="M0 0 C1.32 0.33 2.64 0.66 4 1 C2.68 4.96 1.36 8.92 0 13 C-2.0903754 8.81924919 -2.22667078 8.41186737 -1.125 4.25 C-0.92132812 3.45078125 -0.71765625 2.6515625 -0.5078125 1.828125 C-0.34023438 1.22484375 -0.17265625 0.6215625 0 0 Z " fill="#69665D" transform="translate(784,803)"/>
<path d="M0 0 C2.1875 0.3125 2.1875 0.3125 4 1 C3.67 1.66 3.34 2.32 3 3 C5.31 3 7.62 3 10 3 C10 3.66 10 4.32 10 5 C5.07872966 5.16682272 1.49656104 5.24828052 -3 3 C-1.75 1.4375 -1.75 1.4375 0 0 Z " fill="#898479" transform="translate(815,770)"/>
<path d="M0 0 C1.65 0 3.3 0 5 0 C4.67 1.65 4.34 3.3 4 5 C4.66 4.67 5.32 4.34 6 4 C5.67 5.65 5.34 7.3 5 9 C3.0625 8.4375 3.0625 8.4375 1 7 C0.25 3.375 0.25 3.375 0 0 Z " fill="#0F0B0A" transform="translate(690,760)"/>
<path d="M0 0 C0.66 1.32 1.32 2.64 2 4 C1.34 4 0.68 4 0 4 C0 4.99 0 5.98 0 7 C0.99 6.67 1.98 6.34 3 6 C2.43628586 9.26954202 1.50037734 10.82575883 -1 13 C-2.5121867 9.97562661 -2.17263369 7.33758466 -2 4 C-1 1.5625 -1 1.5625 0 0 Z " fill="#777468" transform="translate(857,733)"/>
<path d="M0 0 C0.33 0 0.66 0 1 0 C1.08096803 1.45742463 1.13917774 2.91612807 1.1875 4.375 C1.22230469 5.18710937 1.25710938 5.99921875 1.29296875 6.8359375 C1.19628906 7.55007813 1.09960938 8.26421875 1 9 C0.01 9.66 -0.98 10.32 -2 11 C-2.99 10.67 -3.98 10.34 -5 10 C-7.14255793 10.38932856 -7.14255793 10.38932856 -9 11 C-8.34 10.01 -7.68 9.02 -7 8 C-6.60986284 6.0103005 -6.26797351 4.00980131 -6 2 C-5.67 2 -5.34 2 -5 2 C-4.67 3.65 -4.34 5.3 -4 7 C-3.01 7 -2.02 7 -1 7 C-0.67 4.69 -0.34 2.38 0 0 Z " fill="#737063" transform="translate(883,758)"/>
<path d="M0 0 C0 0.33 0 0.66 0 1 C-2.31 1 -4.62 1 -7 1 C-7 1.99 -7 2.98 -7 4 C-5.68 4.66 -4.36 5.32 -3 6 C-9.52307692 6.36923077 -9.52307692 6.36923077 -11.9375 4.5 C-12.4634375 3.7575 -12.4634375 3.7575 -13 3 C-9.21656826 -0.94792877 -5.07874402 -0.29300446 0 0 Z " fill="#645F55" transform="translate(656,740)"/>
<path d="M0 0 C1.21236328 0.02707031 1.21236328 0.02707031 2.44921875 0.0546875 C3.37154297 0.08949219 3.37154297 0.08949219 4.3125 0.125 C4.3125 0.785 4.3125 1.445 4.3125 2.125 C0.91785554 4.21401197 -1.73591529 4.46861606 -5.6875 4.125 C-6.3475 3.465 -7.0075 2.805 -7.6875 2.125 C-4.48369983 -0.01086678 -3.66810033 -0.10632175 0 0 Z " fill="#70685D" transform="translate(446.6875,739.875)"/>
<path d="M0 0 C0.99 0 1.98 0 3 0 C3 3.63 3 7.26 3 11 C2.01 11.33 1.02 11.66 0 12 C0 8.04 0 4.08 0 0 Z " fill="#887C6C" transform="translate(756,728)"/>
<path d="M0 0 C1.65 0 3.3 0 5 0 C3.375 7.625 3.375 7.625 0 11 C0 7.37 0 3.74 0 0 Z " fill="#141010" transform="translate(747,805)"/>
<path d="M0 0 C0.66 0.33 1.32 0.66 2 1 C0.52307692 8.63076923 0.52307692 8.63076923 -2.125 10.5 C-2.74375 10.665 -3.3625 10.83 -4 11 C-3.38461538 3.49230769 -3.38461538 3.49230769 -1.4375 1 C-0.963125 0.67 -0.48875 0.34 0 0 Z " fill="#878175" transform="translate(861,729)"/>
<path d="M0 0 C1.65 0.33 3.3 0.66 5 1 C4.67 2.65 4.34 4.3 4 6 C2.35 5.67 0.7 5.34 -1 5 C-0.67 3.35 -0.34 1.7 0 0 Z " fill="#80847B" transform="translate(877,730)"/>
<path d="M0 0 C0.33 0 0.66 0 1 0 C1.33 3.63 1.66 7.26 2 11 C3.32 11.33 4.64 11.66 6 12 C6 12.66 6 13.32 6 14 C4.02 14.33 2.04 14.66 0 15 C-1.47193312 12.05613377 -0.84936173 9.62609964 -0.5625 6.375 C-0.46066406 5.18648437 -0.35882812 3.99796875 -0.25390625 2.7734375 C-0.17011719 1.85820313 -0.08632813 0.94296875 0 0 Z " fill="#6E6A63" transform="translate(746,805)"/>
<path d="M0 0 C2.62187494 1.04874998 3.79371361 1.64931313 5.25 4.125 C5.4975 4.74375 5.745 5.3625 6 6 C5.01 6.495 5.01 6.495 4 7 C4 6.34 4 5.68 4 5 C3.01 4.67 2.02 4.34 1 4 C0.3125 1.9375 0.3125 1.9375 0 0 Z M-5 4 C-2.03 4.495 -2.03 4.495 1 5 C0.01 6.485 0.01 6.485 -1 8 C-2.32 6.68 -3.64 5.36 -5 4 Z " fill="#7D776B" transform="translate(877,751)"/>
<path d="M0 0 C0.66 0 1.32 0 2 0 C2 0.66 2 1.32 2 2 C4.97 2 7.94 2 11 2 C11 2.33 11 2.66 11 3 C8.03 3.66 5.06 4.32 2 5 C1.67 7.64 1.34 10.28 1 13 C0.67 13 0.34 13 0 13 C-0.19466332 11.20909747 -0.38051213 9.41723495 -0.5625 7.625 C-0.66691406 6.62726562 -0.77132812 5.62953125 -0.87890625 4.6015625 C-1 2 -1 2 0 0 Z " fill="#635E55" transform="translate(583,728)"/>
<path d="M0 0 C2.26171875 0.4609375 2.26171875 0.4609375 4.6875 1.375 C5.49574219 1.67148437 6.30398438 1.96796875 7.13671875 2.2734375 C7.75160156 2.51320313 8.36648438 2.75296875 9 3 C9 3.66 9 4.32 9 5 C6.5332355 5.88336837 5.36140628 6.1312406 2.859375 5.22265625 C2.16328125 4.83980469 1.4671875 4.45695313 0.75 4.0625 C0.04359375 3.68222656 -0.6628125 3.30195312 -1.390625 2.91015625 C-1.92171875 2.60980469 -2.4528125 2.30945313 -3 2 C-2.01 1.34 -1.02 0.68 0 0 Z " fill="#171513" transform="translate(539,533)"/>
<path d="M0 0 C0.66 0 1.32 0 2 0 C2.28875 1.051875 2.5775 2.10375 2.875 3.1875 C3.86041151 6.87309321 3.86041151 6.87309321 5.25 9.6875 C6 12 6 12 5.046875 14.14453125 C4.52867187 15.06298828 4.52867187 15.06298828 4 16 C3.32320342 14.274773 2.65898 12.54461061 2 10.8125 C1.443125 9.36810547 1.443125 9.36810547 0.875 7.89453125 C0.02363228 5.07817642 -0.17072647 2.91835561 0 0 Z " fill="#706F65" transform="translate(499,506)"/>
<path d="M0 0 C4.21878192 -0.19622241 7.17010894 0.19769832 11 2 C10.67 3.32 10.34 4.64 10 6 C6.40992874 4.66654496 3.20429093 3.1056769 0 1 C0 0.67 0 0.34 0 0 Z " fill="#1F1617" transform="translate(629,557)"/>
<path d="M0 0 C0.99 0 1.98 0 3 0 C2.67 4.29 2.34 8.58 2 13 C1.34 13 0.68 13 0 13 C0 8.71 0 4.42 0 0 Z " fill="#797A70" transform="translate(603,806)"/>
<path d="M0 0 C5.75 -0.125 5.75 -0.125 8 1 C8 1.99 8 2.98 8 4 C6.02 4.33 4.04 4.66 2 5 C2 4.34 2 3.68 2 3 C1.01 2.67 0.02 2.34 -1 2 C-0.67 1.34 -0.34 0.68 0 0 Z " fill="#6C675C" transform="translate(490,770)"/>
<path d="M0 0 C1.65 0.33 3.3 0.66 5 1 C5.33 2.65 5.66 4.3 6 6 C3.33333333 5.33333333 0.66666667 4.66666667 -2 4 C-2 3.34 -2 2.68 -2 2 C-1.34 2 -0.68 2 0 2 C0 1.34 0 0.68 0 0 Z " fill="#848275" transform="translate(828,730)"/>
<path d="M0 0 C2.4375 0.8125 2.4375 0.8125 5 2 C5.33 2.99 5.66 3.98 6 5 C3.03 5 0.06 5 -3 5 C-2.34 4.67 -1.68 4.34 -1 4 C-0.34786708 1.97536745 -0.34786708 1.97536745 0 0 Z " fill="#7F786E" transform="translate(552,551)"/>
<path d="M0 0 C4.43458973 1.3937282 6.87378374 3.60582235 10 7 C8.6078125 6.505 8.6078125 6.505 7.1875 6 C4.07970709 4.85032996 4.07970709 4.85032996 1 5 C0.67 3.35 0.34 1.7 0 0 Z " fill="#9C9987" transform="translate(724,548)"/>
<path d="M0 0 C2.125 0.375 2.125 0.375 4 1 C3.01 2.485 3.01 2.485 2 4 C1.01 4 0.02 4 -1 4 C-1 7.3 -1 10.6 -1 14 C-1.33 14 -1.66 14 -2 14 C-2.05389087 12.04196493 -2.09274217 10.08351091 -2.125 8.125 C-2.14820313 7.03445313 -2.17140625 5.94390625 -2.1953125 4.8203125 C-2 2 -2 2 0 0 Z " fill="#272822" transform="translate(560,805)"/>
<path d="M0 0 C2.125 0.375 2.125 0.375 4 1 C3.67 2.32 3.34 3.64 3 5 C2.01 4.67 1.02 4.34 0 4 C-0.33 7.3 -0.66 10.6 -1 14 C-1.33 14 -1.66 14 -2 14 C-2.05389087 12.04196493 -2.09274217 10.08351091 -2.125 8.125 C-2.14820313 7.03445313 -2.17140625 5.94390625 -2.1953125 4.8203125 C-2 2 -2 2 0 0 Z " fill="#1B1B18" transform="translate(550,805)"/>
<path d="M0 0 C1.10683101 3.56645547 1.13339621 6.9054793 1.125 10.625 C1.12757813 11.77226563 1.13015625 12.91953125 1.1328125 14.1015625 C1 17 1 17 0 19 C-0.66 19 -1.32 19 -2 19 C-1.85913398 16.39547729 -1.71251536 13.79149803 -1.5625 11.1875 C-1.50352539 10.08051758 -1.50352539 10.08051758 -1.44335938 8.95117188 C-1.25618965 5.76928658 -1.01279207 3.03837622 0 0 Z " fill="#212122" transform="translate(527,750)"/>
<path d="M0 0 C1.65 0.33 3.3 0.66 5 1 C5.33 1.99 5.66 2.98 6 4 C3.29120665 5.35439668 0.99066732 5.06501451 -2 5 C-1.34 3.35 -0.68 1.7 0 0 Z " fill="#888372" transform="translate(822,748)"/>
<path d="M0 0 C3.465 1.98 3.465 1.98 7 4 C7 4.99 7 5.98 7 7 C5.68 7 4.36 7 3 7 C3 6.01 3 5.02 3 4 C2.34 4 1.68 4 1 4 C0.67 2.68 0.34 1.36 0 0 Z " fill="#140F0F" transform="translate(715,562)"/>
<path d="M0 0 C1.55078125 1.20703125 1.55078125 1.20703125 3 3 C2.85546875 5.26171875 2.85546875 5.26171875 2.1875 7.6875 C1.97480469 8.49574219 1.76210938 9.30398438 1.54296875 10.13671875 C1.27419922 11.05904297 1.27419922 11.05904297 1 12 C0.67 12 0.34 12 0 12 C-0.39063507 10.56666979 -0.76198474 9.12807321 -1.125 7.6875 C-1.33382813 6.88699219 -1.54265625 6.08648438 -1.7578125 5.26171875 C-2 3 -2 3 0 0 Z " fill="#605D54" transform="translate(468,799)"/>
<path d="M0 0 C2.1519437 3.22791555 2.20086443 4.28400809 2 8 C0.0625 8.5625 0.0625 8.5625 -2 9 C-3 8 -3 8 -3.0625 5.4375 C-3.041875 4.633125 -3.02125 3.82875 -3 3 C-2.67 3.66 -2.34 4.32 -2 5 C-1.34 5 -0.68 5 0 5 C0 3.35 0 1.7 0 0 Z " fill="#857F75" transform="translate(531,759)"/>
<path d="M0 0 C1.5 1.1875 1.5 1.1875 3 3 C3.1875 5.6875 3.1875 5.6875 3 8 C1.68 8.33 0.36 8.66 -1 9 C-1.125 2.25 -1.125 2.25 0 0 Z " fill="#20151A" transform="translate(828,757)"/>
<path d="M0 0 C0.66 0.33 1.32 0.66 2 1 C1 4 1 4 -2 6 C-2.57993699 8.19454681 -2.57993699 8.19454681 -2.6875 10.625 C-2.75324219 11.44226563 -2.81898438 12.25953125 -2.88671875 13.1015625 C-2.92410156 13.72804688 -2.96148437 14.35453125 -3 15 C-3.33 15 -3.66 15 -4 15 C-4.63019694 5.98468271 -4.63019694 5.98468271 -2 1.875 C-1.34 1.25625 -0.68 0.6375 0 0 Z " fill="#282620" transform="translate(487,747)"/>
<path d="M0 0 C1.98 1.65 3.96 3.3 6 5 C5.67 6.32 5.34 7.64 5 9 C3.68 8.67 2.36 8.34 1 8 C1 7.34 1 6.68 1 6 C1.66 6 2.32 6 3 6 C2.34 5.34 1.68 4.68 1 4 C0.375 1.875 0.375 1.875 0 0 Z " fill="#999183" transform="translate(739,560)"/>
<path d="M0 0 C0.33 0.99 0.66 1.98 1 3 C1.66 3.33 2.32 3.66 3 4 C1.25 6 1.25 6 -1 8 C-2.32 8 -3.64 8 -5 8 C-5 7.34 -5 6.68 -5 6 C-4.360625 5.7525 -3.72125 5.505 -3.0625 5.25 C-0.81258459 4.18437567 -0.81258459 4.18437567 -0.25 1.875 C-0.1675 1.25625 -0.085 0.6375 0 0 Z " fill="#67645F" transform="translate(778,818)"/>
<path d="M0 0 C2.64 0 5.28 0 8 0 C7.01 1.485 7.01 1.485 6 3 C2.375 3.1875 2.375 3.1875 -1 3 C-0.67 2.01 -0.34 1.02 0 0 Z " fill="#7E7969" transform="translate(819,770)"/>
<path d="M0 0 C0 0.33 0 0.66 0 1 C-1.1446875 1.1546875 -1.1446875 1.1546875 -2.3125 1.3125 C-5.04354896 1.7598463 -5.04354896 1.7598463 -6.5625 3.625 C-7.036875 4.07875 -7.51125 4.5325 -8 5 C-10.1875 4.6875 -10.1875 4.6875 -12 4 C-12 3.34 -12 2.68 -12 2 C-8.09971775 -0.60018816 -4.52565431 -0.15085514 0 0 Z " fill="#736E62" transform="translate(702,770)"/>
<path d="M0 0 C1.65 1.65 3.3 3.3 5 5 C4.34 5.66 3.68 6.32 3 7 C2.01 7 1.02 7 0 7 C0 6.34 0 5.68 0 5 C-0.66 4.67 -1.32 4.34 -2 4 C-1.34 2.68 -0.68 1.36 0 0 Z " fill="#7A7768" transform="translate(690,765)"/>
<path d="M0 0 C1.65 0.33 3.3 0.66 5 1 C4.01 2.32 3.02 3.64 2 5 C3.32 5.33 4.64 5.66 6 6 C4.1875 6.6875 4.1875 6.6875 2 7 C0.1875 5.8125 0.1875 5.8125 -1 4 C-0.6875 1.8125 -0.6875 1.8125 0 0 Z " fill="#8E8A7D" transform="translate(868,748)"/>
<path d="M0 0 C3.63 0.33 7.26 0.66 11 1 C11 1.33 11 1.66 11 2 C9.9275 2.144375 8.855 2.28875 7.75 2.4375 C5.08337051 2.83749442 2.58600271 3.27591924 0 4 C0 2.68 0 1.36 0 0 Z " fill="#867C74" transform="translate(438,743)"/>
<path d="M0 0 C2.79651501 1.46817038 3.43411431 2.40553901 4.5 5.3125 C0.72454612 4.22181332 -1.97043472 3.4041909 -4.5 0.3125 C-2.5 -0.6875 -2.5 -0.6875 0 0 Z " fill="#6E705F" transform="translate(580.5,548.6875)"/>
<path d="M0 0 C2.0625 0.4375 2.0625 0.4375 4 1 C2.63016497 4.16115776 2.0109362 4.9927092 -1 7 C-1.04254356 5.00045254 -1.04080783 2.99958364 -1 1 C-0.67 0.67 -0.34 0.34 0 0 Z " fill="#7D7A6E" transform="translate(642,744)"/>
<path d="M0 0 C2.97 0 5.94 0 9 0 C9.33 1.32 9.66 2.64 10 4 C5.78087253 3.5205537 3.20336822 2.83374881 0 0 Z " fill="#6B6657" transform="translate(740,740)"/>
<path d="M0 0 C3.91593446 0.78318689 7.36406635 2.39179858 11 4 C11 4.66 11 5.32 11 6 C6.48986609 5.46939601 3.61621781 3.69113883 0 1 C0 0.67 0 0.34 0 0 Z " fill="#948F85" transform="translate(710,558)"/>
<path d="M0 0 C4.455 1.98 4.455 1.98 9 4 C7.68 4.33 6.36 4.66 5 5 C4.01 5.33 3.02 5.66 2 6 C1.34 4.02 0.68 2.04 0 0 Z " fill="#110C0E" transform="translate(526,549)"/>
<path d="M0 0 C-1 3 -1 3 -3 4 C-4.99960012 4.039992 -7.00047242 4.04346799 -9 4 C-9 3.34 -9 2.68 -9 2 C-3.375 0 -3.375 0 0 0 Z " fill="#606158" transform="translate(520,816)"/>
<path d="M0 0 C0.33 0.66 0.66 1.32 1 2 C2.97888961 2.72693904 4.97954558 3.39816251 7 4 C7 4.66 7 5.32 7 6 C7.99 6.33 8.98 6.66 10 7 C5.85463326 6.5289356 3.0080208 6.0080208 0 3 C0 2.01 0 1.02 0 0 Z " fill="#746D64" transform="translate(854,768)"/>
<path d="M0 0 C0.66 0.33 1.32 0.66 2 1 C1.34 2.32 0.68 3.64 0 5 C0.99 5.99 1.98 6.98 3 8 C0.69 7.34 -1.62 6.68 -4 6 C-3.34 5.67 -2.68 5.34 -2 5 C-2 3.68 -2 2.36 -2 1 C-1.34 0.67 -0.68 0.34 0 0 Z " fill="#706B5E" transform="translate(821,747)"/>
<path d="M0 0 C0.66 0 1.32 0 2 0 C3.28317892 3.84953676 3.06643637 6.94738135 3 11 C0.39665076 8.28817788 0.00543309 7.10866187 -0.1875 3.25 C-0.125625 2.1775 -0.06375 1.105 0 0 Z " fill="#928D81" transform="translate(752,584)"/>
<path d="M0 0 C0.66 0 1.32 0 2 0 C5.07692308 5.41538462 5.07692308 5.41538462 4.6875 8.375 C4.460625 8.91125 4.23375 9.4475 4 10 C1.04816899 7.04816899 0.91336012 4.04488053 0 0 Z " fill="#958F7E" transform="translate(735,582)"/>
<path d="M0 0 C2.31 0 4.62 0 7 0 C7.33 0.99 7.66 1.98 8 3 C5.69 3 3.38 3 1 3 C0.67 2.01 0.34 1.02 0 0 Z " fill="#7C7465" transform="translate(488,741)"/>
<path d="M0 0 C2.00841268 0.01421885 4.01537247 0.13420475 6.01953125 0.265625 C2.5960657 3.41521331 -0.42309612 3.82741609 -4.98046875 4.265625 C-3.72152968 1.74774686 -2.88459378 0.38688832 0 0 Z " fill="#21201C" transform="translate(867.98046875,732.734375)"/>
<path d="M0 0 C3.46941546 0.45822468 6.67395049 0.89131683 10 2 C9.67 3.32 9.34 4.64 9 6 C7.88625 5.071875 7.88625 5.071875 6.75 4.125 C4.51198812 2.39562719 2.56260013 1.13893339 0 0 Z " fill="#8F897D" transform="translate(697,743)"/>
<path d="M0 0 C0.66 0 1.32 0 2 0 C1.67 1.65 1.34 3.3 1 5 C0.34 5 -0.32 5 -1 5 C-1.33 5.66 -1.66 6.32 -2 7 C-2.33 6.01 -2.66 5.02 -3 4 C-1.6875 1.8125 -1.6875 1.8125 0 0 Z " fill="#746D64" transform="translate(581,727)"/>
<path d="M0 0 C1.7074998 1.28062485 3.37373596 2.61767557 5 4 C5 4.66 5 5.32 5 6 C2.525 5.01 2.525 5.01 0 4 C0 2.68 0 1.36 0 0 Z " fill="#6D6861" transform="translate(482,769)"/>
<path d="M0 0 C1.093125 0.0825 2.18625 0.165 3.3125 0.25 C3.3125 0.58 3.3125 0.91 3.3125 1.25 C1.3325 1.25 -0.6475 1.25 -2.6875 1.25 C-3.0175 2.57 -3.3475 3.89 -3.6875 5.25 C-4.6775 4.92 -5.6675 4.59 -6.6875 4.25 C-4.79150483 0.68106792 -4.16790733 0.28256999 0 0 Z " fill="#201C1A" transform="translate(541.6875,744.75)"/>
<path d="M0 0 C2 2 2 2 2 5 C1.34 5 0.68 5 0 5 C-0.33 5.66 -0.66 6.32 -1 7 C-1.625 4.625 -1.625 4.625 -2 2 C-1.34 1.34 -0.68 0.68 0 0 Z " fill="#878374" transform="translate(859,742)"/>
<path d="M0 0 C5.75 1.75 5.75 1.75 8 4 C5 5 5 5 2.3125 3.6875 C1.549375 3.130625 0.78625 2.57375 0 2 C0 1.34 0 0.68 0 0 Z " fill="#827F6F" transform="translate(646,546)"/>
<path d="M0 0 C2.31 1.98 4.62 3.96 7 6 C5.02 6.99 5.02 6.99 3 8 C0 3.375 0 3.375 0 0 Z " fill="#716F63" transform="translate(527,526)"/>
<path d="M0 0 C2.34058637 2.12780579 3.70700306 4.11562221 5 7 C4.34 7.66 3.68 8.32 3 9 C1.4375 6.625 1.4375 6.625 0 4 C0.33 3.34 0.66 2.68 1 2 C0.34 1.67 -0.32 1.34 -1 1 C-0.67 0.67 -0.34 0.34 0 0 Z " fill="#6E6E60" transform="translate(521,518)"/>
<path d="M0 0 C0.66 0.33 1.32 0.66 2 1 C0.35 2.98 -1.3 4.96 -3 7 C-3.99 6.67 -4.98 6.34 -6 6 C-4.02 4.02 -2.04 2.04 0 0 Z " fill="#7F7C70" transform="translate(571,471)"/>
<path d="M0 0 C-0.33 1.32 -0.66 2.64 -1 4 C-2.32 4.33 -3.64 4.66 -5 5 C-5.33 4.01 -5.66 3.02 -6 2 C-2.25 0 -2.25 0 0 0 Z " fill="#787668" transform="translate(584,465)"/>
<path d="M0 0 C1.98 0.99 3.96 1.98 6 3 C5.67 3.66 5.34 4.32 5 5 C2.69 4.34 0.38 3.68 -2 3 C-1.34 2.01 -0.68 1.02 0 0 Z " fill="#120A11" transform="translate(854,771)"/>
<path d="M0 0 C1.4606285 2.64738916 2 3.89448334 2 7 C0.35 7.33 -1.3 7.66 -3 8 C-1.125 2.25 -1.125 2.25 0 0 Z " fill="#141114" transform="translate(407,762)"/>
<path d="M0 0 C1.22589844 0.15275391 1.22589844 0.15275391 2.4765625 0.30859375 C3.41628906 0.43427734 3.41628906 0.43427734 4.375 0.5625 C4.375 0.8925 4.375 1.2225 4.375 1.5625 C-3.25 2.8125 -3.25 2.8125 -6.625 0.5625 C-4.10446405 -0.69776798 -2.7707902 -0.35624445 0 0 Z " fill="#7C7665" transform="translate(540.625,741.4375)"/>
<path d="M0 0 C0.33 0.99 0.66 1.98 1 3 C-2.22791555 5.1519437 -3.28400809 5.20086443 -7 5 C-4.702779 3.25728062 -2.40133271 1.60088848 0 0 Z " fill="#777365" transform="translate(652,626)"/>
</svg>
